<svg width="1354" height="400" viewBox="0 0 1354 400" fill="none" xmlns="http://www.w3.org/2000/svg">
<path d="M623 138.5C626 142.1 628.1 145 629.3 147.2C630.5 149.4 631.1 151.5 631.1 153.5C631.1 155.9 629.5 158.7 626.3 161.9C623.3 165.1 620.3 166.7 617.3 166.7C613.3 166.7 610.1 166.1 607.7 164.9C605.3 163.7 603.3 161.8 601.7 159.2C598.5 154.4 594.6 150.3 590 146.9C585.4 143.3 578.2 141.5 568.4 141.5C560 141.5 550.4 143.4 539.6 147.2C529 151 521.4 155.7 516.8 161.3C512.8 166.3 509.3 173.9 506.3 184.1C503.5 194.3 502.1 204.2 502.1 213.8C502.1 225.4 504.6 236.1 509.6 245.9C514.8 255.5 522.2 263.2 531.8 269C541.6 274.8 553.3 277.7 566.9 277.7C574.3 277.7 581.9 276.3 589.7 273.5C597.7 270.5 604.6 265.7 610.4 259.1H610.1C613.7 255.3 618.2 253.4 623.6 253.4C626.8 253.4 629.8 254.8 632.6 257.6C635.6 260.4 637.1 263.2 637.1 266C637.1 269 636.6 271.7 635.6 274.1C634.8 276.3 633.2 278.8 630.8 281.6C622.6 290.8 612.9 297.1 601.7 300.5C590.5 303.9 577.1 305.6 561.5 305.6C547.7 305.6 533.7 302.3 519.5 295.7C505.5 289.1 494.7 281.1 487.1 271.7C483.1 265.9 479.2 257.6 475.4 246.8C471.8 235.8 470 226.9 470 220.1C470 202.7 472.6 186.2 477.8 170.6C483.2 154.8 491.2 142.2 501.8 132.8C508.8 126.4 518.9 121.6 532.1 118.4C545.3 115.2 557.4 113.6 568.4 113.6C581.8 113.6 592.3 115.5 599.9 119.3C607.7 122.9 615.4 129.3 623 138.5ZM788.473 208.7C790.073 211.5 791.373 215.6 792.373 221C793.373 226.2 793.873 230.9 793.873 235.1C793.873 242.9 792.173 254 788.773 268.4C774.973 293.6 754.573 306.2 727.573 306.2C717.573 306.2 707.373 302.9 696.973 296.3C686.573 289.7 679.373 282.1 675.373 273.5C669.973 256.3 667.273 245.4 667.273 240.8C667.273 232.8 668.973 224.3 672.373 215.3C675.973 206.3 680.473 198.5 685.873 191.9C689.273 187.3 695.373 183.4 704.173 180.2C712.973 176.8 720.973 175.1 728.173 175.1C742.173 175.1 754.073 177.8 763.873 183.2C773.673 188.4 781.873 196.9 788.473 208.7ZM762.373 257C763.373 254.4 763.873 247.7 763.873 236.9C763.873 231.1 762.773 225.4 760.573 219.8C758.573 214.2 755.573 209.4 751.573 205.4C751.173 205 750.073 204.4 748.273 203.6C746.473 202.6 743.973 201.7 740.773 200.9C737.773 199.9 734.273 199.4 730.273 199.4C719.073 199.4 710.873 203.9 705.673 212.9C700.473 221.9 697.873 232.1 697.873 243.5C697.873 245.5 698.373 249.3 699.373 254.9C700.573 260.5 701.573 264 702.373 265.4C702.973 266.8 704.473 268.8 706.873 271.4C709.473 273.8 712.573 276 716.173 278C719.973 279.8 723.873 280.7 727.873 280.7C736.873 280.7 744.073 278.6 749.473 274.4C754.873 270 759.173 264.2 762.373 257ZM873.589 293C873.589 296.4 872.289 299.4 869.689 302C867.089 304.6 863.889 305.9 860.089 305.9C854.089 305.9 849.689 304.8 846.889 302.6C844.089 300.2 842.689 295.9 842.689 289.7C842.689 282.3 842.489 272.6 842.089 260.6C841.689 250.6 841.489 242.2 841.489 235.4C841.489 232.2 841.689 228 842.089 222.8C842.489 218 842.689 214.4 842.689 212C842.089 208.2 840.589 205.1 838.189 202.7C835.789 200.1 832.689 198.8 828.889 198.8C827.089 198.8 825.589 198 824.389 196.4C823.189 194.6 822.589 192.8 822.589 191C822.589 186.4 824.389 182.9 827.989 180.5C831.789 178.1 836.289 176.9 841.489 176.9C852.289 176.9 859.789 183.3 863.989 196.1C869.189 190.1 875.089 185.3 881.689 181.7C888.489 177.9 894.989 176 901.189 176C908.589 176 915.289 178 921.289 182C927.489 186 930.589 191.4 930.589 198.2C930.589 202 928.889 205.9 925.489 209.9C922.289 213.9 918.989 215.9 915.589 215.9C913.789 215.9 912.189 215.5 910.789 214.7C909.589 213.7 908.089 212.3 906.289 210.5C904.289 208.5 902.589 207.1 901.189 206.3C899.789 205.3 898.189 204.8 896.389 204.8C893.189 204.8 890.189 205.3 887.389 206.3C884.589 207.3 882.689 208.5 881.689 209.9C878.489 214.9 876.089 219.4 874.489 223.4C873.089 227.4 872.389 231.7 872.389 236.3C872.389 239.7 872.289 242.4 872.089 244.4L871.789 261.5C871.789 264.1 871.889 267 872.089 270.2C872.289 273.4 872.489 275.8 872.689 277.4C873.289 282.8 873.589 288 873.589 293ZM954.427 200.6C951.627 200.2 949.327 199.1 947.527 197.3C945.927 195.3 945.127 192.9 945.127 190.1C945.127 186.5 946.527 183.5 949.327 181.1C949.927 180.5 950.927 180 952.327 179.6C953.727 179 954.827 178.5 955.627 178.1C960.027 176.7 962.827 175.6 964.027 174.8C968.627 172 971.727 167.4 973.327 161C974.927 153.4 975.927 148.2 976.327 145.4C976.727 141 978.127 137.7 980.527 135.5C983.127 133.1 986.327 131.9 990.127 131.9C995.127 131.9 998.627 133.2 1000.63 135.8C1002.63 138.4 1003.63 143.2 1003.63 150.2C1003.63 159.4 1001.43 168.1 997.027 176.3C999.827 176.3 1004.43 176.1 1010.83 175.7C1020.43 175.3 1027.13 175.1 1030.93 175.1C1034.33 175.1 1037.23 176 1039.63 177.8C1042.23 179.4 1043.53 181.8 1043.53 185C1043.53 192.6 1040.03 197.1 1033.03 198.5C1026.63 200.3 1015.03 201.4 998.227 201.8C996.827 221.4 996.127 236.9 996.127 248.3C996.127 255.3 996.427 260.3 997.027 263.3C998.227 269.5 1000.23 274.1 1003.03 277.1C1006.03 279.9 1010.43 281.3 1016.23 281.3C1019.03 281.3 1023.23 280.6 1028.83 279.2C1032.23 278.2 1034.93 277.7 1036.93 277.7C1039.53 277.7 1041.53 278.6 1042.93 280.4C1044.33 282.2 1045.03 284.6 1045.03 287.6C1045.03 293 1041.53 297.5 1034.53 301.1C1027.53 304.5 1019.23 306.2 1009.63 306.2C1003.63 306.2 997.727 304.8 991.927 302C986.127 299 981.227 295.4 977.227 291.2C976.427 290.8 975.227 288.6 973.627 284.6C972.227 280.6 970.827 276.2 969.427 271.4C968.827 269 968.527 263.2 968.527 254C968.527 245.2 969.127 230 970.327 208.4L970.627 201.8C969.227 201.8 966.627 201.7 962.827 201.5C959.027 201.1 956.227 200.8 954.427 200.6ZM1069.63 236.3C1069.63 224.1 1072.33 214 1077.73 206C1083.13 197.8 1090.63 190.1 1100.23 182.9C1103.03 180.9 1107.73 179.2 1114.33 177.8C1120.93 176.2 1126.73 175.4 1131.73 175.4C1137.73 175.4 1144.03 176.7 1150.63 179.3C1157.43 181.7 1162.93 184.5 1167.13 187.7C1174.53 193.1 1179.63 199.4 1182.43 206.6C1185.23 213.6 1186.63 222 1186.63 231.8C1186.63 236 1184.23 240.1 1179.43 244.1C1174.83 247.9 1169.83 249.8 1164.43 249.8L1153.03 249.5C1147.23 249.5 1138.93 249.7 1128.13 250.1L1121.83 250.4C1117.43 250.8 1114.13 251 1111.93 251C1108.73 251 1104.33 250.6 1098.73 249.8C1099.53 259.2 1103.03 266.6 1109.23 272C1115.43 277.2 1122.13 279.8 1129.33 279.8C1141.93 279.8 1150.73 277.3 1155.73 272.3C1159.93 269.3 1162.73 267.4 1164.13 266.6C1165.53 265.8 1167.73 265.4 1170.73 265.4C1173.93 265.4 1176.73 266.9 1179.13 269.9C1181.53 272.9 1182.73 275.9 1182.73 278.9C1182.73 282.3 1180.63 285.8 1176.43 289.4C1172.43 292.8 1166.93 296.4 1159.93 300.2C1156.13 301.8 1150.93 303.2 1144.33 304.4C1137.73 305.6 1132.23 306.2 1127.83 306.2C1120.83 306.2 1113.03 304.2 1104.43 300.2C1095.83 296 1089.43 291.4 1085.23 286.4C1081.03 281.4 1077.33 274.3 1074.13 265.1C1071.13 255.9 1069.63 246.3 1069.63 236.3ZM1129.33 228.2C1143.53 228.2 1153.93 227.7 1160.53 226.7C1160.13 220.9 1158.33 216.2 1155.13 212.6C1151.93 208.8 1147.53 205.6 1141.93 203C1140.13 202.2 1138.53 201.6 1137.13 201.2C1135.73 200.8 1134.13 200.6 1132.33 200.6C1123.13 200.6 1115.33 203.1 1108.93 208.1C1102.73 213.1 1099.03 219.5 1097.83 227.3C1107.83 227.9 1118.33 228.2 1129.33 228.2ZM1322.42 172.7C1326.42 172.7 1329.52 173.7 1331.72 175.7C1334.12 177.5 1335.32 179.8 1335.32 182.6C1335.32 184.6 1334.92 186.7 1334.12 188.9C1333.52 190.9 1332.82 193 1332.02 195.2C1327.42 206 1317.72 221.1 1302.92 240.5C1318.12 260.1 1330.42 272.7 1339.82 278.3C1340.62 278.7 1342.12 279.4 1344.32 280.4C1346.52 281.4 1348.22 282.6 1349.42 284C1350.82 285.4 1351.52 287 1351.52 288.8C1351.52 293.2 1349.82 296.8 1346.42 299.6C1343.22 302.2 1339.32 303.5 1334.72 303.5C1326.92 303.5 1318.42 299.2 1309.22 290.6C1300.02 281.8 1292.22 272.6 1285.82 263C1281.22 270 1275.92 277 1269.92 284C1264.12 290.8 1258.72 296.6 1253.72 301.4C1251.72 303.6 1249.32 305.3 1246.52 306.5C1243.92 307.7 1241.32 308.3 1238.72 308.3C1235.12 308.3 1231.92 307.5 1229.12 305.9C1226.32 304.3 1224.92 301.5 1224.92 297.5C1224.92 296.5 1225.62 294.9 1227.02 292.7C1228.42 290.3 1229.22 288.9 1229.42 288.5C1231.82 284.3 1235.02 280 1239.02 275.6C1243.02 271 1245.52 268.1 1246.52 266.9C1248.92 263.9 1251.52 261 1254.32 258.2C1255.92 256.4 1258.32 253.6 1261.52 249.8C1264.72 246 1266.92 243 1268.12 240.8L1257.62 226.4C1252.62 220.6 1248.32 216 1244.72 212.6C1241.12 209 1238.22 207.2 1236.02 207.2C1232.82 207.2 1229.82 208.1 1227.02 209.9C1224.62 211.5 1222.22 212.3 1219.82 212.3C1217.22 212.3 1215.22 211.7 1213.82 210.5C1212.42 209.1 1211.72 207.6 1211.72 206C1211.72 199.2 1214.42 193.4 1219.82 188.6C1225.22 183.6 1232.02 181.1 1240.22 181.1C1248.02 181.1 1254.92 183.8 1260.92 189.2C1267.12 194.4 1273.22 201.4 1279.22 210.2C1280.02 211 1280.92 212.3 1281.92 214.1C1282.92 215.9 1283.92 217.4 1284.92 218.6C1287.12 215.4 1291.12 209.2 1296.92 200C1303.12 189 1306.82 182.7 1308.02 181.1C1312.22 175.5 1317.02 172.7 1322.42 172.7Z" fill="#FFC10D"/>
<path d="M174.708 339.866C169.175 342.566 162.522 340.195 159.888 334.662C158.373 331.501 155.541 329.328 152.182 328.669C148.823 327.944 145.332 328.932 142.764 331.237L123.729 348.428C129.063 366.936 144.213 377.541 163.577 377.738C172.863 377.738 181.755 374.841 189.001 369.44V214.657C184.522 216.632 179.45 217.752 174.247 217.752C153.829 217.752 137.297 201.154 137.297 180.801C137.297 174.676 142.236 169.67 148.427 169.67C154.619 169.67 159.558 174.61 159.558 180.801C159.558 188.903 166.145 195.555 174.312 195.555C182.414 195.555 189.066 188.968 189.066 180.801V30.5644C177.869 22.2659 162.391 19.9602 149.02 24.8344C135.979 29.6423 126.429 40.2465 123.465 53.4201C124.321 60.7314 130.447 66.3952 138.021 66.3952C146.123 66.3952 152.775 59.8083 152.775 51.6412C152.775 45.5159 157.714 40.5104 163.906 40.5104C170.097 40.5104 175.038 45.4497 175.038 51.6412C175.038 72.0589 158.44 88.5917 138.087 88.5917C120.765 88.5917 106.275 76.604 102.256 60.5337C99.7531 60.1384 97.2508 59.8756 94.6823 59.8756C79.4017 59.8756 65.2407 67.0543 56.7446 79.1083C43.2418 97.9458 47.1287 122.909 65.4384 137.201L69.7196 146.027C69.7196 154.129 76.3064 160.781 84.4735 160.781C92.6406 160.781 99.2274 154.194 99.2274 146.027C99.2274 139.902 104.167 134.896 110.358 134.896C116.55 134.896 121.489 139.836 121.489 146.027C121.489 166.445 104.891 182.978 84.5387 182.978C69.0604 182.978 55.8215 173.362 50.2892 159.859C33.6911 166.577 22.494 182.056 22.494 199.905C22.494 222.167 40.278 240.741 63.2642 243.112C73.0125 240.609 79.9284 236.591 80.5204 229.017C81.311 223.748 79.203 218.676 74.9218 215.581C69.9824 211.958 68.9279 205.043 72.5509 200.102C76.174 195.163 83.0889 194.109 88.0293 197.732C98.8973 205.767 104.496 219.006 102.519 232.376C100.346 247.723 90.1362 258.854 69.85 264.518C54.767 275.254 48.9046 294.684 56.0844 311.413C64.713 330.909 84.9992 340.131 106.405 334.401L128.206 314.773C136.111 307.659 146.451 304.827 156.857 306.868C167.199 308.91 175.761 315.497 180.305 325.047C182.612 330.579 180.306 337.297 174.708 339.866Z" fill="#56ACE0"/>
<path d="M339.765 156.959C338.118 156.695 336.67 156.037 335.352 155.049C332.586 154.587 329.754 154.918 327.054 156.102C319.347 160.252 316.581 166.64 319.413 175.467C320.995 179.09 323.826 181.856 327.515 183.238C333.245 185.544 336.011 191.867 333.838 197.663C332.126 202.076 327.911 204.777 323.497 204.777C309.138 200.627 302.618 193.119 299.061 184.359C291.354 162.953 302.025 142.403 318.161 135.685C324.879 132.787 331.993 131.93 339.107 133.182C353.531 118.428 355.638 96.231 343.519 79.1063C335.023 67.0533 320.862 59.8735 305.582 59.8735C303.078 59.8735 300.576 60.1374 298.007 60.5317C293.99 76.6029 279.499 88.5897 262.177 88.5897C241.759 88.5897 225.226 71.9916 225.226 51.6392C225.226 45.5139 230.166 40.5083 236.357 40.5083C242.549 40.5083 247.488 45.4476 247.488 51.6392C247.488 59.741 254.075 66.3931 262.242 66.3931C269.816 66.3931 275.941 60.7283 276.798 53.4181C273.834 40.2454 264.35 29.6413 251.242 24.8323C237.872 19.9582 222.328 22.329 211.065 30.5623V209.649C215.544 207.673 220.616 206.554 225.819 206.554C246.237 206.554 262.77 223.152 262.77 243.504C262.77 249.63 257.83 254.635 251.639 254.635C245.447 254.635 240.508 249.696 240.508 243.504C240.508 235.402 233.921 228.75 225.754 228.75C217.652 228.75 211 235.337 211 243.504V369.371C218.245 374.706 227.071 377.67 236.424 377.67C255.657 377.208 271.991 365.419 276.272 348.36L257.304 331.235C254.735 328.864 251.31 327.942 247.885 328.667C244.526 329.391 241.694 331.499 240.179 334.66C237.478 340.193 230.892 342.565 225.36 339.864C219.827 337.163 217.455 330.577 220.156 325.045C224.701 315.494 233.198 308.908 243.604 306.866C253.945 304.824 264.417 307.657 272.255 314.77L294.056 334.399C311.445 340.129 336.868 330.908 344.377 311.411C351.688 294.353 345.497 274.329 329.623 263.857C320.995 256.678 323.629 244.426 335.156 243.57C359.196 242.122 377.968 223.02 377.968 200.099C377.769 178.628 361.764 160.581 339.765 156.959Z" fill="#FFC10D"/>
<path d="M399.965 199.969C399.965 174.15 384.685 151.492 361.698 140.757C377.044 118.889 377.769 89.1186 361.698 66.329C349.052 48.3484 328.106 37.6781 305.581 37.6781C302.09 37.6781 298.665 37.9419 295.239 38.4687C288.652 22.6613 275.611 10.0154 258.817 3.89007C237.871 -3.48637 214.753 0.00419254 200 11.2013C183.928 -0.062033 164.63 -3.28872 141.183 3.89007C124.322 10.0154 111.28 22.5299 104.76 38.4687C101.401 38.0072 97.9101 37.6781 94.4196 37.6781C71.9601 37.6781 50.9485 48.4136 38.3025 66.329C22.2313 89.0524 22.9557 118.823 38.3025 140.757C15.3153 151.492 0.034668 174.084 0.034668 199.969C0.034668 227.237 17.3571 250.883 42.056 260.828C29.8706 277.755 26.7753 300.215 35.2715 320.106C49.1033 349.614 75.9764 360.943 103.112 357.715C112.794 383.666 134.596 399.078 163.313 400C176.552 400 189.198 396.048 199.868 388.737C210.472 395.982 223.184 400 236.423 400C263.099 400 288.984 382.349 296.624 357.715C325.341 361.732 354.519 344.41 364.465 320.106C372.961 300.215 369.866 277.755 357.68 260.828C382.643 250.817 399.965 227.236 399.965 199.969ZM188.869 180.736C188.869 188.838 182.282 195.49 174.115 195.49C166.013 195.49 159.361 188.903 159.361 180.736C159.361 174.611 154.421 169.605 148.23 169.605C142.038 169.605 137.099 174.545 137.099 180.736C137.099 201.154 153.697 217.687 174.05 217.687C179.319 217.687 184.258 216.567 188.803 214.592V369.308C181.558 374.643 172.732 377.607 163.379 377.607C144.015 377.475 128.998 366.805 123.531 348.297L142.566 331.106C145.135 328.8 148.625 327.813 151.984 328.537C155.344 329.262 158.176 331.37 159.691 334.531C162.392 340.063 168.978 342.435 174.51 339.734C180.042 337.033 182.414 330.448 179.713 324.915C175.168 315.365 166.672 308.779 156.266 306.737C145.859 304.695 135.453 307.528 127.615 314.641L105.813 334.269C84.3411 339.999 64.1863 330.779 55.4925 311.282C48.3137 294.618 54.1751 275.056 69.2581 264.387C89.5444 258.722 99.7532 247.591 101.927 232.245C103.903 218.875 98.3707 205.636 87.4374 197.6C82.4981 193.977 75.5821 195.032 71.9591 199.971C68.3361 204.91 69.3906 211.826 74.33 215.449C78.6774 218.611 80.7191 223.616 79.9285 228.886C79.4018 236.46 72.4196 240.544 62.6723 242.981C39.6851 240.61 21.9022 222.035 21.9022 199.773C21.9022 181.924 33.1655 166.38 49.6973 159.728C55.2296 173.296 68.4033 182.846 83.9468 182.846C104.365 182.846 120.897 166.248 120.897 145.896C120.897 139.771 115.958 134.765 109.766 134.765C103.575 134.765 98.6356 139.704 98.6356 145.896C98.6356 153.998 92.0487 160.65 83.8816 160.65C75.7146 160.65 69.1277 154.063 69.1277 145.896L64.8465 137.07C46.4696 122.71 42.6489 97.681 55.954 78.975C64.4502 66.922 78.6112 59.7422 93.8918 59.7422C96.3951 59.7422 98.8974 60.0061 101.466 60.4004C105.483 76.4717 119.974 88.4584 137.297 88.4584C157.714 88.4584 174.247 71.8604 174.247 51.5079C174.247 45.3826 169.308 40.377 163.116 40.377C156.991 40.377 151.985 45.3164 151.985 51.5079C151.985 59.6097 145.399 66.2618 137.231 66.2618C129.657 66.2618 123.532 60.597 122.675 53.2868C125.639 40.1141 135.123 29.51 148.231 24.701C161.601 19.8269 177.146 22.1977 188.277 30.431V180.8H188.87V180.736H188.869ZM334.957 243.44C323.431 244.362 320.796 256.679 329.425 263.726C345.232 274.264 351.49 294.288 344.179 311.281C336.67 330.777 311.246 339.998 293.858 334.268L272.056 314.64C264.152 307.527 253.812 304.694 243.405 306.736C233.064 308.778 224.502 315.365 219.958 324.914C217.258 330.447 219.629 337.1 225.161 339.733C230.693 342.302 237.346 340.062 239.98 334.53C241.495 331.369 244.328 329.195 247.687 328.536C251.046 327.812 254.536 328.8 257.105 331.105L276.14 348.296C271.99 365.354 255.59 377.079 236.292 377.606C227.005 377.606 218.114 374.708 210.868 369.307V243.505C210.868 235.404 217.454 228.751 225.621 228.751C233.723 228.751 240.375 235.338 240.375 243.505C240.375 249.631 245.315 254.636 251.506 254.636C257.698 254.636 262.637 249.697 262.637 243.505C262.637 223.088 246.105 206.555 225.687 206.555C220.417 206.555 215.478 207.675 210.933 209.65V30.5645C222.13 22.266 237.608 19.9603 251.11 24.8345C264.151 29.6424 273.702 40.2466 276.666 53.4203C275.81 60.7315 269.684 66.3953 262.109 66.3953C254.008 66.3953 247.356 59.8084 247.356 51.6414C247.356 45.5161 242.416 40.5105 236.225 40.5105C230.033 40.5105 225.094 45.4498 225.094 51.6414C225.094 72.059 241.626 88.5919 262.044 88.5919C279.367 88.5919 293.857 76.6041 297.875 60.5338C300.378 60.1385 302.881 59.8757 305.449 59.8757C320.73 59.8757 334.891 67.0545 343.387 79.1084C355.506 96.2994 353.333 118.496 338.974 133.184C331.992 131.998 324.747 132.788 318.029 135.687C301.892 142.274 291.156 162.823 298.928 184.361C302.485 193.121 309.072 200.564 323.365 204.779C327.777 204.779 331.993 202.078 333.706 197.665C336.011 192.001 333.179 185.546 327.383 183.241C323.695 181.792 320.862 178.959 319.281 175.469C316.449 166.577 319.215 160.188 326.921 156.105C329.49 154.985 332.454 154.59 335.22 155.051C336.537 155.907 337.986 156.631 339.632 156.962C361.698 160.518 377.636 178.631 377.636 199.84C377.769 222.89 358.932 241.925 334.957 243.44Z" fill="#08539A"/>
<path d="M124.19 220.848C118.46 222.89 115.364 229.279 117.472 235.009C120.831 244.56 119.778 254.9 114.377 263.529C109.042 272.091 100.15 277.623 90.0722 278.743H89.8083C83.7492 279.467 79.468 284.868 80.1262 290.994C81.2459 297.843 87.7665 301.137 92.5092 300.742C109.37 298.964 124.256 289.611 133.214 275.252C142.172 260.828 144.082 243.44 138.417 227.435C136.308 221.77 129.92 218.806 124.19 220.848Z" fill="#08539A"/>
<path d="M140.195 105.979H107.79C101.005 105.979 95.5393 100.447 95.5393 93.7287V91.2917C95.5393 85.1664 90.5999 80.1608 84.4084 80.1608C78.2168 80.1608 73.2775 85.1001 73.2775 91.2917V93.5973C73.2775 112.632 88.7558 128.176 107.856 128.176H140.195C146.98 128.176 152.446 133.708 152.446 140.427C152.446 146.552 157.385 151.557 163.577 151.557C169.702 151.557 174.708 146.618 174.708 140.427C174.708 121.392 159.229 105.979 140.195 105.979Z" fill="#08539A"/>
<path d="M326.724 93.5973V91.2917C326.724 85.1664 321.784 80.1608 315.593 80.1608C309.467 80.1608 304.462 85.1001 304.462 91.2917V93.5973C304.462 100.382 298.929 105.848 292.211 105.848H259.806C240.771 105.848 225.227 121.326 225.227 140.427C225.227 146.552 230.167 151.557 236.358 151.557C242.55 151.557 247.489 146.618 247.489 140.427C247.489 133.642 253.021 128.176 259.74 128.176H292.211C311.312 128.176 326.724 112.632 326.724 93.5973Z" fill="#08539A"/>
<path d="M285.361 197.203C280.157 193.975 273.308 195.556 270.08 200.76C266.852 205.963 268.433 212.812 273.637 216.04C282.199 221.375 287.798 230.201 288.917 240.279C290.037 250.356 286.546 260.169 279.301 267.349L279.17 267.481C274.823 271.828 274.889 278.744 279.236 283.09C284.373 287.833 291.487 286.318 294.978 283.09C307.031 271.235 312.959 254.637 311.05 237.841C309.138 220.98 299.719 206.16 285.361 197.203Z" fill="#08539A"/>
</svg>
