<svg width="800" height="800" viewBox="0 0 800 800" fill="none" xmlns="http://www.w3.org/2000/svg">
<g clip-path="url(#clip0_2_2)">
<path d="M349.415 679.731C338.351 685.131 325.045 680.389 319.777 669.325C316.747 663.002 311.082 658.655 304.364 657.337C297.646 655.888 290.665 657.865 285.528 662.474L247.457 696.856C258.127 733.873 288.425 755.081 327.154 755.476C345.727 755.476 363.51 749.681 378.002 738.879V429.313C369.044 433.264 358.901 435.504 348.494 435.504C307.659 435.504 274.593 402.308 274.593 361.603C274.593 349.352 284.472 339.341 296.855 339.341C309.238 339.341 319.117 349.22 319.117 361.603C319.117 377.806 332.291 391.111 348.625 391.111C364.828 391.111 378.133 377.937 378.133 361.603V61.1287C355.738 44.5317 324.782 39.9204 298.041 49.6687C271.959 59.2846 252.857 80.4929 246.93 106.84C248.641 121.463 260.894 132.79 276.042 132.79C292.246 132.79 305.55 119.617 305.55 103.282C305.55 91.0318 315.429 81.0206 327.812 81.0206C340.195 81.0206 350.076 90.8994 350.076 103.282C350.076 144.118 316.879 177.183 276.175 177.183C241.53 177.183 212.55 153.208 204.513 121.067C199.506 120.277 194.502 119.751 189.365 119.751C158.803 119.751 130.482 134.109 113.489 158.217C86.4837 195.891 94.2575 245.817 130.877 274.402L139.439 292.054C139.439 308.258 152.613 321.562 168.947 321.562C185.281 321.562 198.455 308.388 198.455 292.054C198.455 279.804 208.334 269.792 220.717 269.792C233.1 269.792 242.978 279.671 242.978 292.054C242.978 332.89 209.782 365.955 169.078 365.955C138.121 365.955 111.643 346.723 100.578 319.718C67.3824 333.154 44.9882 364.111 44.9882 399.809C44.9882 444.333 80.5561 481.482 126.528 486.224C146.025 481.217 159.857 473.183 161.041 458.034C162.622 447.496 158.406 437.352 149.844 431.161C139.965 423.915 137.856 410.086 145.102 400.205C152.348 390.326 166.178 388.217 176.059 395.463C197.795 411.534 208.992 438.012 205.039 464.753C200.692 495.447 180.273 517.708 139.7 529.036C109.534 550.507 97.8092 589.368 112.169 622.827C129.426 661.818 169.999 680.261 212.81 668.801L256.413 629.545C272.221 615.318 292.902 609.653 313.715 613.737C334.398 617.82 351.522 630.994 360.61 650.093C365.224 661.158 360.612 674.594 349.415 679.731Z" fill="#56ACE0"/>
<path d="M679.53 313.919C676.237 313.391 673.339 312.075 670.704 310.098C665.172 309.175 659.507 309.835 654.107 312.205C638.694 320.504 633.162 333.281 638.827 350.933C641.989 358.179 647.652 363.712 655.03 366.477C666.49 371.088 672.023 383.734 667.676 395.327C664.251 404.152 655.821 409.554 646.994 409.554C618.277 401.254 605.235 386.238 598.122 368.718C582.709 325.906 604.049 284.806 636.322 271.37C649.759 265.574 663.986 263.861 678.213 266.363C707.063 236.855 711.277 192.462 687.039 158.213C670.046 134.107 641.724 119.747 611.163 119.747C606.156 119.747 601.152 120.275 596.015 121.063C587.98 153.206 558.998 177.179 524.353 177.179C483.518 177.179 450.452 143.983 450.452 103.278C450.452 91.0277 460.331 81.0166 472.714 81.0166C485.097 81.0166 494.976 90.8953 494.976 103.278C494.976 119.482 508.149 132.786 524.484 132.786C539.632 132.786 551.882 121.457 553.596 106.836C547.669 80.4908 528.7 59.2825 502.485 49.6646C475.744 39.9163 444.655 44.658 422.13 61.1246V419.298C431.088 415.347 441.232 413.107 451.638 413.107C492.474 413.107 525.539 446.303 525.539 487.008C525.539 499.259 515.66 509.27 503.277 509.27C490.894 509.27 481.016 499.391 481.016 487.008C481.016 470.805 467.842 457.501 451.508 457.501C435.304 457.501 422 470.674 422 487.008V738.743C436.49 749.412 454.142 755.34 472.849 755.34C511.314 754.417 543.982 730.839 552.545 696.72L514.607 662.47C509.47 657.728 502.619 655.884 495.771 657.333C489.052 658.782 483.387 662.998 480.357 669.321C474.955 680.385 461.784 685.129 450.719 679.727C439.654 674.325 434.911 661.154 440.313 650.089C449.403 630.988 466.395 617.816 487.208 613.733C507.891 609.649 528.834 615.314 544.51 629.541L588.113 668.797C622.89 680.257 673.736 661.816 688.754 622.823C703.377 588.706 690.994 548.659 659.246 527.713C641.989 513.356 647.259 488.853 670.311 487.141C718.392 484.243 755.935 446.041 755.935 400.199C755.538 357.256 723.527 321.163 679.53 313.919Z" fill="#FFC10D"/>
<path d="M799.931 399.938C799.931 348.301 769.369 302.984 723.395 281.513C754.089 237.778 755.538 178.237 723.395 132.658C698.103 96.6966 656.212 75.3559 611.161 75.3559C604.18 75.3559 597.329 75.8837 590.478 76.9371C577.305 45.3223 551.222 20.0305 517.633 7.7799C475.742 -6.97299 429.507 0.00814093 399.999 22.4024C367.856 -0.12431 329.261 -6.57768 282.365 7.7799C248.643 20.0305 222.561 45.0595 209.52 76.9371C202.801 76.0141 195.82 75.3559 188.839 75.3559C143.92 75.3559 101.897 96.8271 76.605 132.658C44.4624 178.104 45.9112 237.646 76.605 281.513C30.6306 302.984 0.0692749 348.168 0.0692749 399.938C0.0692749 454.475 34.7141 501.765 84.1119 521.655C59.7411 555.51 53.5505 600.43 70.5429 640.212C98.2066 699.228 151.953 721.885 206.225 715.43C225.589 767.332 269.191 798.156 326.626 800C353.104 800 378.395 792.096 399.736 777.473C420.944 791.963 446.369 800 472.847 800C526.197 800 577.967 764.697 593.248 715.43C650.682 723.464 709.037 688.819 728.929 640.212C745.922 600.43 739.731 555.51 715.36 521.655C765.286 501.633 799.931 454.473 799.931 399.938ZM377.737 361.472C377.737 377.676 364.564 390.98 348.229 390.98C332.026 390.98 318.722 377.807 318.722 361.472C318.722 349.222 308.843 339.211 296.46 339.211C284.077 339.211 274.198 349.089 274.198 361.472C274.198 402.308 307.394 435.373 348.099 435.373C358.638 435.373 368.517 433.134 377.607 429.183V738.617C363.117 749.286 345.464 755.214 326.758 755.214C288.03 754.951 257.996 733.61 247.062 696.593L285.132 662.211C290.269 657.6 297.25 655.625 303.969 657.074C310.687 658.523 316.352 662.739 319.382 669.062C324.784 680.127 337.955 684.87 349.02 679.468C360.085 674.067 364.828 660.895 359.427 649.83C350.336 630.729 333.344 617.557 312.531 613.474C291.718 609.39 270.905 615.055 255.229 629.282L211.627 668.538C168.682 679.998 128.373 661.557 110.985 622.564C96.6274 589.235 108.35 550.112 138.516 528.773C179.089 517.443 199.506 495.182 203.855 464.49C207.806 437.749 196.741 411.272 174.875 395.2C164.996 387.954 151.164 390.063 143.918 399.942C136.672 409.821 138.781 423.653 148.66 430.899C157.355 437.222 161.438 447.233 159.857 457.772C158.803 472.92 144.839 481.087 125.345 485.961C79.3701 481.219 43.8043 444.07 43.8043 399.547C43.8043 363.848 66.331 332.759 99.3945 319.455C110.459 346.591 136.807 365.692 167.894 365.692C208.729 365.692 241.795 332.496 241.795 291.791C241.795 279.541 231.916 269.53 219.533 269.53C207.15 269.53 197.271 279.408 197.271 291.791C197.271 307.995 184.097 321.299 167.763 321.299C151.429 321.299 138.255 308.126 138.255 291.791L129.693 274.139C92.9391 245.42 85.2978 195.362 111.908 157.95C128.9 133.844 157.222 119.484 187.784 119.484C192.79 119.484 197.795 120.012 202.932 120.801C210.966 152.943 239.948 176.917 274.593 176.917C315.429 176.917 348.494 143.72 348.494 103.016C348.494 90.7649 338.616 80.7537 326.232 80.7537C313.982 80.7537 303.971 90.6325 303.971 103.016C303.971 119.219 290.797 132.523 274.463 132.523C259.315 132.523 247.064 121.194 245.35 106.573C251.278 80.228 270.247 59.0197 296.462 49.4018C323.202 39.6535 354.292 44.3952 376.553 60.8618V361.601H377.739V361.472H377.737ZM669.914 486.88C646.861 488.724 641.592 513.358 658.849 527.453C690.464 548.528 702.979 588.575 688.357 622.562C673.339 661.553 622.493 679.996 587.715 668.536L544.113 629.28C528.304 615.053 507.624 609.388 486.811 613.472C466.128 617.555 449.003 630.729 439.915 649.828C434.515 660.893 439.257 674.199 450.322 679.466C461.387 684.603 474.693 680.125 479.96 669.06C482.99 662.737 488.655 658.391 495.373 657.072C502.091 655.623 509.073 657.6 514.21 662.209L552.28 696.591C543.98 730.708 511.18 754.158 472.584 755.212C454.01 755.212 436.227 749.416 421.735 738.615V487.011C421.735 470.807 434.909 457.503 451.243 457.503C467.447 457.503 480.751 470.676 480.751 487.011C480.751 499.261 490.629 509.272 503.013 509.272C515.396 509.272 525.274 499.394 525.274 487.011C525.274 446.175 492.211 413.109 451.373 413.109C440.834 413.109 430.956 415.349 421.865 419.3V61.1287C444.26 44.5317 475.216 39.9204 502.22 49.6687C528.302 59.2846 547.404 80.4929 553.331 106.84C551.62 121.463 539.367 132.79 524.219 132.79C508.015 132.79 494.711 119.617 494.711 103.282C494.711 91.0319 484.832 81.0207 472.449 81.0207C460.066 81.0207 450.187 90.8994 450.187 103.282C450.187 144.118 483.251 177.183 524.088 177.183C558.733 177.183 587.713 153.208 595.75 121.067C600.757 120.277 605.761 119.751 610.898 119.751C641.459 119.751 669.781 134.109 686.774 158.217C711.012 192.599 706.666 236.992 677.948 266.367C663.984 263.995 649.494 265.577 636.057 271.374C603.785 284.547 582.311 325.646 597.857 368.722C604.97 386.243 618.144 401.128 646.729 409.558C655.554 409.558 663.986 404.156 667.411 395.331C672.023 384.001 666.358 371.092 654.766 366.481C647.389 363.583 641.724 357.919 638.562 350.937C632.897 333.155 638.429 320.376 653.842 312.209C658.979 309.97 664.907 309.179 670.44 310.102C673.074 311.814 675.972 313.263 679.265 313.923C723.395 321.036 755.273 357.262 755.273 399.679C755.538 445.78 717.865 483.85 669.914 486.88Z" fill="#194F82"/>
<path d="M248.38 441.696C236.92 445.78 230.728 458.558 234.944 470.018C241.662 489.12 239.555 509.8 228.753 527.057C218.084 544.182 200.299 555.247 180.144 557.486H179.616C167.498 558.935 158.936 569.737 160.252 581.987C162.492 595.687 175.533 602.275 185.018 601.484C218.74 597.928 248.513 579.222 266.428 550.505C284.344 521.655 288.164 486.88 276.835 454.87C272.617 443.54 259.84 437.613 248.38 441.696Z" fill="#194F82"/>
<path d="M280.391 211.959H215.58C202.011 211.959 191.079 200.894 191.079 187.457V182.583C191.079 170.333 181.2 160.322 168.817 160.322C156.434 160.322 146.555 170.2 146.555 182.583V187.195C146.555 225.265 177.512 256.352 215.712 256.352H280.391C293.96 256.352 304.892 267.417 304.892 280.853C304.892 293.104 314.771 303.115 327.154 303.115C339.404 303.115 349.415 293.236 349.415 280.853C349.415 242.785 318.459 211.959 280.391 211.959Z" fill="#194F82"/>
<path d="M653.447 187.195V182.583C653.447 170.333 643.568 160.322 631.185 160.322C618.935 160.322 608.924 170.2 608.924 182.583V187.195C608.924 200.764 597.859 211.696 584.422 211.696H519.612C481.541 211.696 450.454 242.652 450.454 280.853C450.454 293.104 460.333 303.115 472.716 303.115C485.099 303.115 494.978 293.236 494.978 280.853C494.978 267.284 506.043 256.352 519.479 256.352H584.422C622.623 256.352 653.447 225.265 653.447 187.195Z" fill="#194F82"/>
<path d="M570.721 394.406C560.314 387.95 546.615 391.113 540.16 401.519C533.704 411.926 536.867 425.625 547.273 432.08C564.398 442.75 575.595 460.402 577.835 480.557C580.074 500.712 573.093 520.339 558.603 534.699L558.34 534.961C549.645 543.656 549.778 557.488 558.472 566.181C568.746 575.666 582.974 572.636 589.957 566.181C614.063 542.47 625.918 509.274 622.099 475.683C618.277 441.959 599.438 412.321 570.721 394.406Z" fill="#194F82"/>
</g>
<defs>
<clipPath id="clip0_2_2">
<rect width="800" height="800" fill="white"/>
</clipPath>
</defs>
</svg>
